<svg id="visual" viewBox="0 0 2500 600" width="2500" height="600" xmlns="http://www.w3.org/2000/svg" xmlns:xlink="http://www.w3.org/1999/xlink" version="1.1"><path d="M0 427L59.5 418.7C119 410.3 238 393.7 357 400.5C476 407.3 595 437.7 714 459.7C833 481.7 952 495.3 1071.2 485.3C1190.3 475.3 1309.7 441.7 1428.8 422C1548 402.3 1667 396.7 1786 394.7C1905 392.7 2024 394.3 2143 402.5C2262 410.7 2381 425.3 2440.5 432.7L2500 440L2500 601L2440.5 601C2381 601 2262 601 2143 601C2024 601 1905 601 1786 601C1667 601 1548 601 1428.8 601C1309.7 601 1190.3 601 1071.2 601C952 601 833 601 714 601C595 601 476 601 357 601C238 601 119 601 59.5 601L0 601Z" fill="#2e2e37" stroke-linecap="round" stroke-linejoin="miter"></path></svg>